<mxfile host="app.diagrams.net" modified="2023-01-24T21:46:16.615Z" agent="5.0 (Windows)" etag="70YiMVKK_if9kgsUpjUW" version="20.8.8" type="github">
  <diagram name="Page-1" id="2AOY_KW5mDiWNd7LnKPI">
    <mxGraphModel dx="1687" dy="887" grid="1" gridSize="10" guides="1" tooltips="1" connect="1" arrows="1" fold="1" page="1" pageScale="1" pageWidth="850" pageHeight="1100" math="0" shadow="0">
      <root>
        <mxCell id="0" />
        <mxCell id="1" parent="0" />
        <mxCell id="d2FxbLmuILoBnlTnSUs5-25" style="edgeStyle=orthogonalEdgeStyle;rounded=0;orthogonalLoop=1;jettySize=auto;html=1;" parent="1" source="d2FxbLmuILoBnlTnSUs5-1" target="d2FxbLmuILoBnlTnSUs5-11" edge="1">
          <mxGeometry relative="1" as="geometry" />
        </mxCell>
        <mxCell id="d2FxbLmuILoBnlTnSUs5-1" value="Great School API" style="sketch=0;html=1;dashed=0;whitespace=wrap;fillColor=#2875E2;strokeColor=#ffffff;points=[[0.005,0.63,0],[0.1,0.2,0],[0.9,0.2,0],[0.5,0,0],[0.995,0.63,0],[0.72,0.99,0],[0.5,1,0],[0.28,0.99,0]];verticalLabelPosition=bottom;align=center;verticalAlign=top;shape=mxgraph.kubernetes.icon;prIcon=api" parent="1" vertex="1">
          <mxGeometry x="70" y="190" width="50" height="48" as="geometry" />
        </mxCell>
        <mxCell id="d2FxbLmuILoBnlTnSUs5-23" style="edgeStyle=orthogonalEdgeStyle;rounded=0;orthogonalLoop=1;jettySize=auto;html=1;" parent="1" source="d2FxbLmuILoBnlTnSUs5-4" target="d2FxbLmuILoBnlTnSUs5-10" edge="1">
          <mxGeometry relative="1" as="geometry" />
        </mxCell>
        <mxCell id="d2FxbLmuILoBnlTnSUs5-4" value="Levels API" style="sketch=0;html=1;dashed=0;whitespace=wrap;fillColor=#2875E2;strokeColor=#ffffff;points=[[0.005,0.63,0],[0.1,0.2,0],[0.9,0.2,0],[0.5,0,0],[0.995,0.63,0],[0.72,0.99,0],[0.5,1,0],[0.28,0.99,0]];verticalLabelPosition=bottom;align=center;verticalAlign=top;shape=mxgraph.kubernetes.icon;prIcon=api" parent="1" vertex="1">
          <mxGeometry x="70" y="86" width="50" height="48" as="geometry" />
        </mxCell>
        <mxCell id="d2FxbLmuILoBnlTnSUs5-5" value="mit website" style="verticalLabelPosition=bottom;html=1;verticalAlign=top;align=center;strokeColor=none;fillColor=#00BEF2;shape=mxgraph.azure.website_generic;pointerEvents=1;" parent="1" vertex="1">
          <mxGeometry x="70" y="310" width="50" height="42.5" as="geometry" />
        </mxCell>
        <mxCell id="d2FxbLmuILoBnlTnSUs5-6" value="Stock Analysis" style="verticalLabelPosition=bottom;html=1;verticalAlign=top;align=center;strokeColor=none;fillColor=#00BEF2;shape=mxgraph.azure.website_generic;pointerEvents=1;" parent="1" vertex="1">
          <mxGeometry x="75" y="419.5" width="50" height="42.5" as="geometry" />
        </mxCell>
        <mxCell id="d2FxbLmuILoBnlTnSUs5-8" value="&lt;div&gt;ZipCode, Country, Currency Database&lt;/div&gt;&lt;div&gt;&lt;br&gt;&lt;/div&gt;" style="aspect=fixed;perimeter=ellipsePerimeter;html=1;align=center;shadow=0;dashed=0;spacingTop=3;image;image=img/lib/active_directory/database.svg;" parent="1" vertex="1">
          <mxGeometry x="280" y="290" width="50" height="37" as="geometry" />
        </mxCell>
        <mxCell id="d2FxbLmuILoBnlTnSUs5-9" style="edgeStyle=orthogonalEdgeStyle;rounded=0;orthogonalLoop=1;jettySize=auto;html=1;exitX=0.5;exitY=0.85;exitDx=0;exitDy=0;exitPerimeter=0;entryX=0.12;entryY=0.659;entryDx=0;entryDy=0;entryPerimeter=0;" parent="1" source="d2FxbLmuILoBnlTnSUs5-5" target="d2FxbLmuILoBnlTnSUs5-5" edge="1">
          <mxGeometry relative="1" as="geometry" />
        </mxCell>
        <mxCell id="d2FxbLmuILoBnlTnSUs5-24" style="edgeStyle=orthogonalEdgeStyle;rounded=0;orthogonalLoop=1;jettySize=auto;html=1;" parent="1" source="d2FxbLmuILoBnlTnSUs5-10" target="d2FxbLmuILoBnlTnSUs5-21" edge="1">
          <mxGeometry relative="1" as="geometry" />
        </mxCell>
        <mxCell id="d2FxbLmuILoBnlTnSUs5-10" value="Levels API Scripts" style="outlineConnect=0;dashed=0;verticalLabelPosition=bottom;verticalAlign=top;align=center;html=1;shape=mxgraph.aws3.android;fillColor=#8CC64F;gradientColor=none;" parent="1" vertex="1">
          <mxGeometry x="273.75" y="74" width="50" height="60" as="geometry" />
        </mxCell>
        <mxCell id="d2FxbLmuILoBnlTnSUs5-26" style="edgeStyle=orthogonalEdgeStyle;rounded=0;orthogonalLoop=1;jettySize=auto;html=1;" parent="1" source="d2FxbLmuILoBnlTnSUs5-11" target="d2FxbLmuILoBnlTnSUs5-8" edge="1">
          <mxGeometry relative="1" as="geometry" />
        </mxCell>
        <mxCell id="d2FxbLmuILoBnlTnSUs5-27" style="edgeStyle=orthogonalEdgeStyle;rounded=0;orthogonalLoop=1;jettySize=auto;html=1;" parent="1" source="d2FxbLmuILoBnlTnSUs5-11" target="d2FxbLmuILoBnlTnSUs5-22" edge="1">
          <mxGeometry relative="1" as="geometry" />
        </mxCell>
        <mxCell id="d2FxbLmuILoBnlTnSUs5-11" value="Great School API Scripts" style="outlineConnect=0;dashed=0;verticalLabelPosition=bottom;verticalAlign=top;align=center;html=1;shape=mxgraph.aws3.android;fillColor=#8CC64F;gradientColor=none;" parent="1" vertex="1">
          <mxGeometry x="270" y="184" width="60" height="60" as="geometry" />
        </mxCell>
        <mxCell id="d2FxbLmuILoBnlTnSUs5-28" style="edgeStyle=orthogonalEdgeStyle;rounded=0;orthogonalLoop=1;jettySize=auto;html=1;entryX=0.78;entryY=0.588;entryDx=0;entryDy=0;entryPerimeter=0;" parent="1" source="d2FxbLmuILoBnlTnSUs5-12" target="d2FxbLmuILoBnlTnSUs5-5" edge="1">
          <mxGeometry relative="1" as="geometry" />
        </mxCell>
        <mxCell id="d2FxbLmuILoBnlTnSUs5-34" style="edgeStyle=orthogonalEdgeStyle;rounded=0;orthogonalLoop=1;jettySize=auto;html=1;" parent="1" source="d2FxbLmuILoBnlTnSUs5-12" target="d2FxbLmuILoBnlTnSUs5-33" edge="1">
          <mxGeometry relative="1" as="geometry" />
        </mxCell>
        <mxCell id="d2FxbLmuILoBnlTnSUs5-12" value="WebScrapping" style="outlineConnect=0;dashed=0;verticalLabelPosition=bottom;verticalAlign=top;align=center;html=1;shape=mxgraph.aws3.android;fillColor=#FFD44F;gradientColor=none;" parent="1" vertex="1">
          <mxGeometry x="285" y="370" width="65" height="60" as="geometry" />
        </mxCell>
        <mxCell id="d2FxbLmuILoBnlTnSUs5-13" value="Designated Market Area Database" style="sketch=0;aspect=fixed;html=1;points=[];align=center;image;fontSize=12;image=img/lib/mscae/Cache_Redis_Product.svg;" parent="1" vertex="1">
          <mxGeometry x="460" y="560" width="50" height="42" as="geometry" />
        </mxCell>
        <mxCell id="d2FxbLmuILoBnlTnSUs5-14" value="Standard Database (NAICS,GICS,SICS)" style="sketch=0;aspect=fixed;html=1;points=[];align=center;image;fontSize=12;image=img/lib/mscae/Cache_Redis_Product.svg;" parent="1" vertex="1">
          <mxGeometry x="460" y="638" width="50" height="42" as="geometry" />
        </mxCell>
        <mxCell id="d2FxbLmuILoBnlTnSUs5-29" style="edgeStyle=orthogonalEdgeStyle;rounded=0;orthogonalLoop=1;jettySize=auto;html=1;entryX=0.92;entryY=0.5;entryDx=0;entryDy=0;entryPerimeter=0;" parent="1" source="d2FxbLmuILoBnlTnSUs5-16" target="d2FxbLmuILoBnlTnSUs5-6" edge="1">
          <mxGeometry relative="1" as="geometry" />
        </mxCell>
        <mxCell id="d2FxbLmuILoBnlTnSUs5-35" style="edgeStyle=orthogonalEdgeStyle;rounded=0;orthogonalLoop=1;jettySize=auto;html=1;" parent="1" source="d2FxbLmuILoBnlTnSUs5-16" target="d2FxbLmuILoBnlTnSUs5-33" edge="1">
          <mxGeometry relative="1" as="geometry" />
        </mxCell>
        <mxCell id="d2FxbLmuILoBnlTnSUs5-16" value="Stock Analysis" style="outlineConnect=0;dashed=0;verticalLabelPosition=bottom;verticalAlign=top;align=center;html=1;shape=mxgraph.aws3.android;fillColor=#115193;gradientColor=none;" parent="1" vertex="1">
          <mxGeometry x="280" y="470" width="70" height="70" as="geometry" />
        </mxCell>
        <mxCell id="d2FxbLmuILoBnlTnSUs5-17" value="Company API" style="verticalLabelPosition=bottom;html=1;verticalAlign=top;align=center;strokeColor=none;fillColor=#00BEF2;shape=mxgraph.azure.website_generic;pointerEvents=1;" parent="1" vertex="1">
          <mxGeometry x="60" y="529" width="40" height="42.5" as="geometry" />
        </mxCell>
        <mxCell id="d2FxbLmuILoBnlTnSUs5-30" style="edgeStyle=orthogonalEdgeStyle;rounded=0;orthogonalLoop=1;jettySize=auto;html=1;entryX=0.85;entryY=0.776;entryDx=0;entryDy=0;entryPerimeter=0;" parent="1" source="d2FxbLmuILoBnlTnSUs5-19" target="d2FxbLmuILoBnlTnSUs5-17" edge="1">
          <mxGeometry relative="1" as="geometry" />
        </mxCell>
        <mxCell id="d2FxbLmuILoBnlTnSUs5-32" style="edgeStyle=orthogonalEdgeStyle;rounded=0;orthogonalLoop=1;jettySize=auto;html=1;" parent="1" source="d2FxbLmuILoBnlTnSUs5-19" target="d2FxbLmuILoBnlTnSUs5-31" edge="1">
          <mxGeometry relative="1" as="geometry" />
        </mxCell>
        <mxCell id="d2FxbLmuILoBnlTnSUs5-19" value="Company API" style="outlineConnect=0;dashed=0;verticalLabelPosition=bottom;verticalAlign=top;align=center;html=1;shape=mxgraph.aws3.android;fillColor=#115193;gradientColor=none;" parent="1" vertex="1">
          <mxGeometry x="268.25" y="578" width="73.5" height="84" as="geometry" />
        </mxCell>
        <mxCell id="d2FxbLmuILoBnlTnSUs5-21" value="LevelsData" style="sketch=0;outlineConnect=0;fontColor=#232F3E;gradientColor=none;strokeColor=#ffffff;fillColor=#232F3E;dashed=0;verticalLabelPosition=middle;verticalAlign=bottom;align=center;html=1;whiteSpace=wrap;fontSize=10;fontStyle=1;spacing=3;shape=mxgraph.aws4.productIcon;prIcon=mxgraph.aws4.s3;" parent="1" vertex="1">
          <mxGeometry x="700" y="20" width="80" height="100" as="geometry" />
        </mxCell>
        <mxCell id="d2FxbLmuILoBnlTnSUs5-22" value="GreatSchool Data" style="sketch=0;outlineConnect=0;fontColor=#232F3E;gradientColor=none;strokeColor=#ffffff;fillColor=#232F3E;dashed=0;verticalLabelPosition=middle;verticalAlign=bottom;align=center;html=1;whiteSpace=wrap;fontSize=10;fontStyle=1;spacing=3;shape=mxgraph.aws4.productIcon;prIcon=mxgraph.aws4.s3;" parent="1" vertex="1">
          <mxGeometry x="690" y="158" width="80" height="100" as="geometry" />
        </mxCell>
        <mxCell id="d2FxbLmuILoBnlTnSUs5-31" value="CompanyDatabase" style="sketch=0;aspect=fixed;html=1;points=[];align=center;image;fontSize=12;image=img/lib/mscae/Cache_Redis_Product.svg;" parent="1" vertex="1">
          <mxGeometry x="280" y="720" width="50" height="42" as="geometry" />
        </mxCell>
        <mxCell id="d2FxbLmuILoBnlTnSUs5-33" value="" style="dashed=0;outlineConnect=0;html=1;align=center;labelPosition=center;verticalLabelPosition=bottom;verticalAlign=top;shape=mxgraph.webicons.mongodb;gradientColor=#DFDEDE" parent="1" vertex="1">
          <mxGeometry x="430" y="353" width="80" height="71" as="geometry" />
        </mxCell>
        <object placeholders="1" c4Name="Kubernetes" c4Type="Docker" c4Application="Rancher" label="&lt;font style=&quot;font-size: 16px&quot;&gt;&lt;b&gt;&lt;div style=&quot;text-align: left&quot;&gt;%c4Name%&lt;/div&gt;&lt;/b&gt;&lt;/font&gt;&lt;div style=&quot;text-align: left&quot;&gt;[%c4Application%]&lt;/div&gt;" id="d2FxbLmuILoBnlTnSUs5-37">
          <mxCell style="rounded=1;fontSize=11;whiteSpace=wrap;html=1;dashed=1;arcSize=20;fillColor=none;strokeColor=#666666;fontColor=#333333;labelBackgroundColor=none;align=left;verticalAlign=bottom;labelBorderColor=none;spacingTop=0;spacing=10;dashPattern=8 4;metaEdit=1;rotatable=0;perimeter=rectanglePerimeter;noLabel=0;labelPadding=0;allowArrows=0;connectable=0;expand=0;recursiveResize=0;editable=1;pointerEvents=0;absoluteArcSize=1;points=[[0.25,0,0],[0.5,0,0],[0.75,0,0],[1,0.25,0],[1,0.5,0],[1,0.75,0],[0.75,1,0],[0.5,1,0],[0.25,1,0],[0,0.75,0],[0,0.5,0],[0,0.25,0]];" parent="1" vertex="1">
            <mxGeometry x="160" y="40" width="410" height="770" as="geometry" />
          </mxCell>
        </object>
        <mxCell id="d2FxbLmuILoBnlTnSUs5-39" style="edgeStyle=orthogonalEdgeStyle;rounded=0;orthogonalLoop=1;jettySize=auto;html=1;" parent="1" source="d2FxbLmuILoBnlTnSUs5-38" target="d2FxbLmuILoBnlTnSUs5-33" edge="1">
          <mxGeometry relative="1" as="geometry">
            <mxPoint x="520" y="370" as="targetPoint" />
          </mxGeometry>
        </mxCell>
        <mxCell id="d2FxbLmuILoBnlTnSUs5-40" style="edgeStyle=orthogonalEdgeStyle;rounded=0;orthogonalLoop=1;jettySize=auto;html=1;" parent="1" source="d2FxbLmuILoBnlTnSUs5-38" target="d2FxbLmuILoBnlTnSUs5-13" edge="1">
          <mxGeometry relative="1" as="geometry">
            <Array as="points">
              <mxPoint x="540" y="407" />
              <mxPoint x="540" y="591" />
            </Array>
          </mxGeometry>
        </mxCell>
        <mxCell id="d2FxbLmuILoBnlTnSUs5-41" style="edgeStyle=orthogonalEdgeStyle;rounded=0;orthogonalLoop=1;jettySize=auto;html=1;" parent="1" source="d2FxbLmuILoBnlTnSUs5-38" target="d2FxbLmuILoBnlTnSUs5-14" edge="1">
          <mxGeometry relative="1" as="geometry">
            <mxPoint x="480" y="720" as="targetPoint" />
            <Array as="points">
              <mxPoint x="620" y="407" />
              <mxPoint x="620" y="670" />
            </Array>
          </mxGeometry>
        </mxCell>
        <mxCell id="d2FxbLmuILoBnlTnSUs5-42" style="edgeStyle=orthogonalEdgeStyle;rounded=0;orthogonalLoop=1;jettySize=auto;html=1;entryX=1;entryY=0.5;entryDx=0;entryDy=0;" parent="1" source="d2FxbLmuILoBnlTnSUs5-38" target="d2FxbLmuILoBnlTnSUs5-8" edge="1">
          <mxGeometry relative="1" as="geometry">
            <Array as="points">
              <mxPoint x="719" y="300" />
              <mxPoint x="500" y="300" />
              <mxPoint x="500" y="309" />
            </Array>
          </mxGeometry>
        </mxCell>
        <mxCell id="d2FxbLmuILoBnlTnSUs5-43" style="edgeStyle=orthogonalEdgeStyle;rounded=0;orthogonalLoop=1;jettySize=auto;html=1;" parent="1" source="d2FxbLmuILoBnlTnSUs5-38" target="d2FxbLmuILoBnlTnSUs5-31" edge="1">
          <mxGeometry relative="1" as="geometry">
            <Array as="points">
              <mxPoint x="719" y="741" />
            </Array>
          </mxGeometry>
        </mxCell>
        <mxCell id="d2FxbLmuILoBnlTnSUs5-44" style="edgeStyle=orthogonalEdgeStyle;rounded=0;orthogonalLoop=1;jettySize=auto;html=1;" parent="1" source="d2FxbLmuILoBnlTnSUs5-38" target="d2FxbLmuILoBnlTnSUs5-22" edge="1">
          <mxGeometry relative="1" as="geometry" />
        </mxCell>
        <mxCell id="d2FxbLmuILoBnlTnSUs5-45" style="edgeStyle=orthogonalEdgeStyle;rounded=0;orthogonalLoop=1;jettySize=auto;html=1;" parent="1" source="d2FxbLmuILoBnlTnSUs5-38" target="d2FxbLmuILoBnlTnSUs5-21" edge="1">
          <mxGeometry relative="1" as="geometry">
            <Array as="points">
              <mxPoint x="830" y="377" />
              <mxPoint x="830" y="222" />
              <mxPoint x="810" y="222" />
              <mxPoint x="810" y="70" />
            </Array>
          </mxGeometry>
        </mxCell>
        <mxCell id="d2FxbLmuILoBnlTnSUs5-47" style="edgeStyle=orthogonalEdgeStyle;rounded=0;orthogonalLoop=1;jettySize=auto;html=1;entryX=0;entryY=0.5;entryDx=0;entryDy=0;entryPerimeter=0;" parent="1" source="d2FxbLmuILoBnlTnSUs5-38" target="d2FxbLmuILoBnlTnSUs5-46" edge="1">
          <mxGeometry relative="1" as="geometry" />
        </mxCell>
        <mxCell id="d2FxbLmuILoBnlTnSUs5-50" style="edgeStyle=orthogonalEdgeStyle;rounded=0;orthogonalLoop=1;jettySize=auto;html=1;" parent="1" source="d2FxbLmuILoBnlTnSUs5-38" target="d2FxbLmuILoBnlTnSUs5-49" edge="1">
          <mxGeometry relative="1" as="geometry">
            <mxPoint x="940" y="610" as="targetPoint" />
            <Array as="points">
              <mxPoint x="699" y="520" />
              <mxPoint x="870" y="520" />
              <mxPoint x="870" y="610" />
            </Array>
          </mxGeometry>
        </mxCell>
        <mxCell id="d2FxbLmuILoBnlTnSUs5-38" value="Databricks/Apache Spark" style="aspect=fixed;html=1;points=[];align=center;image;fontSize=12;image=img/lib/azure2/analytics/Azure_Databricks.svg;" parent="1" vertex="1">
          <mxGeometry x="710" y="346.5" width="98.82" height="107" as="geometry" />
        </mxCell>
        <mxCell id="d2FxbLmuILoBnlTnSUs5-55" style="edgeStyle=orthogonalEdgeStyle;rounded=0;orthogonalLoop=1;jettySize=auto;html=1;" parent="1" source="d2FxbLmuILoBnlTnSUs5-46" target="d2FxbLmuILoBnlTnSUs5-48" edge="1">
          <mxGeometry relative="1" as="geometry" />
        </mxCell>
        <mxCell id="d2FxbLmuILoBnlTnSUs5-57" style="edgeStyle=orthogonalEdgeStyle;rounded=0;orthogonalLoop=1;jettySize=auto;html=1;entryX=0.005;entryY=0.63;entryDx=0;entryDy=0;entryPerimeter=0;" parent="1" source="d2FxbLmuILoBnlTnSUs5-46" target="d2FxbLmuILoBnlTnSUs5-56" edge="1">
          <mxGeometry relative="1" as="geometry">
            <mxPoint x="1020" y="150" as="targetPoint" />
            <Array as="points">
              <mxPoint x="1006" y="280" />
              <mxPoint x="970" y="280" />
              <mxPoint x="970" y="214" />
              <mxPoint x="960" y="214" />
            </Array>
          </mxGeometry>
        </mxCell>
        <mxCell id="b6femijTFqx3bPUgSwGr-2" style="edgeStyle=orthogonalEdgeStyle;rounded=0;orthogonalLoop=1;jettySize=auto;html=1;" edge="1" parent="1" source="d2FxbLmuILoBnlTnSUs5-46" target="b6femijTFqx3bPUgSwGr-1">
          <mxGeometry relative="1" as="geometry" />
        </mxCell>
        <mxCell id="d2FxbLmuILoBnlTnSUs5-46" value="Redshift" style="outlineConnect=0;dashed=0;verticalLabelPosition=bottom;verticalAlign=top;align=center;html=1;shape=mxgraph.aws3.redshift;fillColor=#2E73B8;gradientColor=none;" parent="1" vertex="1">
          <mxGeometry x="972.5" y="339" width="67.5" height="75" as="geometry" />
        </mxCell>
        <mxCell id="d2FxbLmuILoBnlTnSUs5-48" value="Tableau Desktop" style="shape=image;html=1;verticalAlign=top;verticalLabelPosition=bottom;labelBackgroundColor=#ffffff;imageAspect=0;aspect=fixed;image=https://cdn1.iconfinder.com/data/icons/ionicons-fill-vol-2/512/logo-tableau-128.png" parent="1" vertex="1">
          <mxGeometry x="1235" y="414" width="80" height="80" as="geometry" />
        </mxCell>
        <mxCell id="d2FxbLmuILoBnlTnSUs5-52" style="edgeStyle=orthogonalEdgeStyle;rounded=0;orthogonalLoop=1;jettySize=auto;html=1;entryX=0.26;entryY=0.542;entryDx=0;entryDy=0;entryPerimeter=0;" parent="1" source="d2FxbLmuILoBnlTnSUs5-49" target="d2FxbLmuILoBnlTnSUs5-51" edge="1">
          <mxGeometry relative="1" as="geometry" />
        </mxCell>
        <mxCell id="d2FxbLmuILoBnlTnSUs5-49" value="" style="dashed=0;outlineConnect=0;html=1;align=center;labelPosition=center;verticalLabelPosition=bottom;verticalAlign=top;shape=mxgraph.weblogos.mongodb" parent="1" vertex="1">
          <mxGeometry x="950" y="570" width="90" height="110" as="geometry" />
        </mxCell>
        <mxCell id="d2FxbLmuILoBnlTnSUs5-54" style="edgeStyle=orthogonalEdgeStyle;rounded=0;orthogonalLoop=1;jettySize=auto;html=1;entryX=0;entryY=0.5;entryDx=0;entryDy=0;entryPerimeter=0;" parent="1" source="d2FxbLmuILoBnlTnSUs5-51" target="d2FxbLmuILoBnlTnSUs5-53" edge="1">
          <mxGeometry relative="1" as="geometry" />
        </mxCell>
        <mxCell id="d2FxbLmuILoBnlTnSUs5-51" value="" style="sketch=0;html=1;dashed=0;whitespace=wrap;fillColor=#2875E2;strokeColor=#ffffff;points=[[0.005,0.63,0],[0.1,0.2,0],[0.9,0.2,0],[0.5,0,0],[0.995,0.63,0],[0.72,0.99,0],[0.5,1,0],[0.28,0.99,0]];verticalLabelPosition=bottom;align=center;verticalAlign=top;shape=mxgraph.kubernetes.icon;prIcon=api" parent="1" vertex="1">
          <mxGeometry x="1130" y="662" width="50" height="48" as="geometry" />
        </mxCell>
        <mxCell id="d2FxbLmuILoBnlTnSUs5-53" value="" style="verticalLabelPosition=bottom;html=1;verticalAlign=top;align=center;strokeColor=none;fillColor=#00BEF2;shape=mxgraph.azure.website_generic;pointerEvents=1;" parent="1" vertex="1">
          <mxGeometry x="1250" y="668" width="180" height="122" as="geometry" />
        </mxCell>
        <mxCell id="d2FxbLmuILoBnlTnSUs5-56" value="Reverse ETL" style="sketch=0;html=1;dashed=0;whitespace=wrap;fillColor=#2875E2;strokeColor=#ffffff;points=[[0.005,0.63,0],[0.1,0.2,0],[0.9,0.2,0],[0.5,0,0],[0.995,0.63,0],[0.72,0.99,0],[0.5,1,0],[0.28,0.99,0]];verticalLabelPosition=bottom;align=center;verticalAlign=top;shape=mxgraph.kubernetes.icon;prIcon=api" parent="1" vertex="1">
          <mxGeometry x="960" y="26" width="50" height="48" as="geometry" />
        </mxCell>
        <mxCell id="b6femijTFqx3bPUgSwGr-1" value="Amazon QuickSight" style="sketch=0;outlineConnect=0;fontColor=#232F3E;gradientColor=none;strokeColor=#ffffff;fillColor=#232F3E;dashed=0;verticalLabelPosition=middle;verticalAlign=bottom;align=center;html=1;whiteSpace=wrap;fontSize=10;fontStyle=1;spacing=3;shape=mxgraph.aws4.productIcon;prIcon=mxgraph.aws4.quicksight;" vertex="1" parent="1">
          <mxGeometry x="1050" y="70" width="120" height="140" as="geometry" />
        </mxCell>
      </root>
    </mxGraphModel>
  </diagram>
</mxfile>
